<?xml version="1.0" encoding="UTF-8"?>
<!DOCTYPE svg PUBLIC "-//W3C//DTD SVG 1.1//EN" "http://www.w3.org/Graphics/SVG/1.1/DTD/svg11.dtd">
<svg xmlns="http://www.w3.org/2000/svg" xmlns:xlink="http://www.w3.org/1999/xlink" version="1.1" width="51px" height="34px" viewBox="-0.5 -0.5 51 34"><defs/><g><path d="M 21.6 31.2 L 21.6 1.2" fill="none" stroke="#3399ff" stroke-width="3" stroke-miterlimit="10" pointer-events="stroke"/><path d="M 27.6 31.2 L 27.6 1.2" fill="none" stroke="#3399ff" stroke-width="3" stroke-miterlimit="10" pointer-events="stroke"/><path d="M 33.6 31.2 L 33.6 1.2" fill="none" stroke="#3399ff" stroke-width="3" stroke-miterlimit="10" pointer-events="stroke"/><path d="M 15.6 31.2 L 15.6 1.2" fill="none" stroke="#3399ff" stroke-width="3" stroke-miterlimit="10" pointer-events="stroke"/><path d="M 37.5 19.58 L 45.15 19.58 C 45.25 19.57 45.34 19.5 45.39 19.39 C 45.44 19.28 45.45 19.14 45.41 19.02 L 41.5 12.92 C 41.39 12.83 41.26 12.83 41.15 12.92 L 37.24 19.02 C 37.2 19.14 37.2 19.28 37.26 19.39 C 37.31 19.5 37.4 19.57 37.5 19.58 Z" fill="#3399ff" stroke="#3399ff" stroke-width="0.6" stroke-miterlimit="10" transform="rotate(90,41.32,16.2)" pointer-events="all"/><path d="M 3.9 19.58 L 11.55 19.58 C 11.65 19.57 11.74 19.5 11.79 19.39 C 11.84 19.28 11.85 19.14 11.81 19.02 L 7.9 12.92 C 7.79 12.83 7.66 12.83 7.55 12.92 L 3.64 19.02 C 3.6 19.14 3.6 19.28 3.66 19.39 C 3.71 19.5 3.8 19.57 3.9 19.58 Z" fill="#3399ff" stroke="#3399ff" stroke-width="0.6" stroke-miterlimit="10" transform="rotate(90,7.73,16.2)" pointer-events="all"/><path d="M 0.6 31.2 L 48.6 31.2" fill="none" stroke="rgb(0, 0, 0)" stroke-width="1.2" stroke-miterlimit="10" pointer-events="stroke"/><path d="M 0.6 1.2 L 48.6 1.2" fill="none" stroke="rgb(0, 0, 0)" stroke-width="1.2" stroke-miterlimit="10" pointer-events="stroke"/><path d="M 48 1.2 L 48 31.2" fill="none" stroke="rgb(0, 0, 0)" stroke-width="1.2" stroke-miterlimit="10" pointer-events="stroke"/></g></svg>