<?xml version="1.0" encoding="UTF-8"?>
<!DOCTYPE svg PUBLIC "-//W3C//DTD SVG 1.1//EN" "http://www.w3.org/Graphics/SVG/1.1/DTD/svg11.dtd">
<svg xmlns="http://www.w3.org/2000/svg" xmlns:xlink="http://www.w3.org/1999/xlink" version="1.1" width="217px" height="131px" viewBox="-3 -0.5 222 132"><defs/><g><ellipse cx="108" cy="65" rx="108" ry="65" fill="transparent" stroke="rgb(0, 0, 0)" stroke-width="6px"  pointer-events="all"/><ellipse cx="108" cy="65" rx="40" ry="40" fill="rgb(0, 0, 0)" stroke="rgb(0, 0, 0)" pointer-events="all"/>
<path d="M34,27c-.55,0-1,.45-1,1v11.82c0,.29-.13,.57-.36,.8-.3,.29-.73,.48-1.19,.44-.87-.02-1.45-.71-1.45-1.33v-1.73c0-.55-.45-1-1-1H11V15l11,.02c.55,0,1-.45,1-1v-.02c0-.55-.45-1-1-1H11c-1.1,0-2,.9-2,2v22h-2c-.55,0-1,.45-1,1v1.49c-.19,1.65,1.17,3.14,3.2,3.5,.06,.01,.15,.01,.21,.01H31c.06,0,.11,0,.17-.01,.08,0,.15,.01,.23,.01h.1c.95,0,1.87-.37,2.54-1.01,.62-.61,.96-1.4,.96-2.23v-11.76c0-.55-.45-1-1-1Zm-24.53,14c-.8-.16-1.57-.69-1.48-1.3,.01-.05,.01-.1,.01-.15v-.55H28v.67c0,.47,.11,.92,.3,1.33H9.47Z"/><path d="M15.97,21h5.98c.55,0,1-.45,1-1s-.45-1-1-1h-5.98c-.55,0-1,.45-1,1s.45,1,1,1Z"/><path d="M15.97,33h12c.55,0,1-.45,1-1s-.45-1-1-1H15.97c-.55,0-1,.45-1,1s.45,1,1,1Z"/><path d="M27.95,23H15.97c-.55,0-1,.45-1,1s.45,1,1,1h11.98c.55,0,1-.45,1-1s-.45-1-1-1Z"/><path d="M15.97,29h11.98c.55,0,1-.45,1-1s-.45-1-1-1H15.97c-.55,0-1,.45-1,1s.45,1,1,1Z"/><path d="M41.45,8.59l-.58-.29-1.87-.93-.37-.18-1.63-.82-2-.99-.56-.28c-.28-.14-.61-.14-.89,0l-.55,.27-2,1-1.63,.81-.37,.19-1.87,.93-.58,.29c-.34,.17-.55,.52-.55,.9v9.62c0,.38,.21,.73,.55,.9l7,3.51c.28,.14,.62,.14,.9,0l7-3.51c.34-.17,.55-.52,.55-.9V9.49c0-.38-.21-.73-.55-.9Zm-8.45,12.41l-5-2.5v-7.38l5,2.5v7.38Zm1-9.12l-3-1.5-1.78-.89,.14-.07,1.64-.82,.6-.3,1.4-.69,1-.5,1,.5,1.39,.69,.61,.31,1.63,.81,.14,.07-1.77,.89-3,1.5Zm6,6.62l-5,2.5v-7.38l5-2.5v7.38Z"/>
</g></svg>