<?xml version="1.0" encoding="utf-8"?>
<svg version="1.1" width="217px" height="131px" viewBox="-3 -2.994 221.951 136.232" xmlns="http://www.w3.org/2000/svg">
  <g>
    <ellipse cx="108" cy="65" rx="108" ry="65" fill="transparent" stroke="rgb(0, 0, 0)" stroke-width="6px" pointer-events="all"/>
    <path d="M 127.248 69.249 C 126.212 69.249 125.365 70.097 125.365 71.131 L 125.365 93.374 C 125.365 93.919 125.12 94.445 124.688 94.878 C 124.123 95.425 123.314 95.781 122.449 95.706 C 120.811 95.668 119.72 94.371 119.72 93.204 L 119.72 89.948 C 119.72 88.913 118.874 88.067 117.839 88.067 L 83.967 88.067 L 83.967 46.669 L 104.666 46.706 C 105.701 46.706 106.549 45.86 106.549 44.825 L 106.549 44.787 C 106.549 43.752 105.701 42.905 104.666 42.905 L 83.967 42.905 C 81.897 42.905 80.203 44.599 80.203 46.669 L 80.203 88.067 L 76.441 88.067 C 75.406 88.067 74.558 88.913 74.558 89.948 L 74.558 92.752 C 74.201 95.857 76.76 98.661 80.58 99.338 C 80.693 99.357 80.863 99.357 80.976 99.357 L 121.601 99.357 C 121.714 99.357 121.809 99.357 121.922 99.338 C 122.072 99.338 122.204 99.357 122.355 99.357 L 122.543 99.357 C 124.33 99.357 126.062 98.661 127.322 97.457 C 128.49 96.309 129.129 94.822 129.129 93.261 L 129.129 71.131 C 129.129 70.097 128.282 69.249 127.248 69.249 Z M 81.089 95.594 C 79.583 95.293 78.134 94.296 78.303 93.148 C 78.322 93.054 78.322 92.959 78.322 92.865 L 78.322 91.83 L 115.956 91.83 L 115.956 93.091 C 115.956 93.975 116.164 94.822 116.521 95.594 L 81.089 95.594 Z" style=""/>
    <path d="M 93.319 57.959 L 104.572 57.959 C 105.607 57.959 106.454 57.112 106.454 56.077 C 106.454 55.043 105.607 54.196 104.572 54.196 L 93.319 54.196 C 92.285 54.196 91.438 55.043 91.438 56.077 C 91.438 57.112 92.285 57.959 93.319 57.959 Z" style=""/>
    <path d="M 93.319 80.54 L 115.9 80.54 C 116.936 80.54 117.782 79.693 117.782 78.658 C 117.782 77.623 116.936 76.776 115.9 76.776 L 93.319 76.776 C 92.285 76.776 91.438 77.623 91.438 78.658 C 91.438 79.693 92.285 80.54 93.319 80.54 Z" style=""/>
    <path d="M 115.862 61.723 L 93.319 61.723 C 92.285 61.723 91.438 62.569 91.438 63.604 C 91.438 64.64 92.285 65.486 93.319 65.486 L 115.862 65.486 C 116.898 65.486 117.745 64.64 117.745 63.604 C 117.745 62.569 116.898 61.723 115.862 61.723 Z" style=""/>
    <path d="M 93.319 73.013 L 115.862 73.013 C 116.898 73.013 117.745 72.166 117.745 71.131 C 117.745 70.097 116.898 69.249 115.862 69.249 L 93.319 69.249 C 92.285 69.249 91.438 70.097 91.438 71.131 C 91.438 72.166 92.285 73.013 93.319 73.013 Z" style=""/>
    <path d="M 141.266 34.607 L 140.174 34.061 L 136.655 32.31 L 135.96 31.972 L 132.893 30.429 L 129.129 28.567 L 128.075 28.039 C 127.548 27.777 126.927 27.777 126.4 28.039 L 125.365 28.548 L 121.601 30.429 L 118.535 31.954 L 117.839 32.31 L 114.32 34.061 L 113.228 34.607 C 112.588 34.926 112.194 35.586 112.194 36.3 L 112.194 54.402 C 112.194 55.118 112.588 55.776 113.228 56.096 L 126.4 62.701 C 126.927 62.965 127.567 62.965 128.094 62.701 L 141.266 56.096 C 141.906 55.776 142.302 55.118 142.302 54.402 L 142.302 36.3 C 142.302 35.586 141.906 34.926 141.266 34.607 Z M 125.365 57.959 L 115.956 53.254 L 115.956 39.367 L 125.365 44.072 L 125.365 57.959 Z M 127.248 40.797 L 121.601 37.975 L 118.252 36.3 L 118.516 36.168 L 121.601 34.626 L 122.732 34.061 L 125.365 32.763 L 127.248 31.822 L 129.129 32.763 L 131.745 34.061 L 132.893 34.645 L 135.96 36.168 L 136.223 36.3 L 132.893 37.975 L 127.248 40.797 Z M 138.538 53.254 L 129.129 57.959 L 129.129 44.072 L 138.538 39.367 L 138.538 53.254 Z" style=""/>
  </g>
</svg>