<?xml version="1.0" encoding="utf-8"?>
<svg version="1.1" width="217px" height="131px" viewBox="-3 -4.279 223.149 137.639" xmlns="http://www.w3.org/2000/svg">
  <g>
    <ellipse cx="108" cy="65" rx="108" ry="65" fill="transparent" stroke="rgb(0, 0, 0)" stroke-width="6px" pointer-events="all"/>
    <path d="M 94.627 52.185 C 96.064 52.185 97.224 53.348 97.224 54.779 L 97.224 85.935 C 97.224 87.934 95.063 89.179 93.329 88.182 C 92.529 87.716 92.032 86.858 92.032 85.935 L 92.032 54.779 C 92.032 53.348 93.195 52.185 94.627 52.185 Z M 107.608 52.185 C 109.045 52.185 110.204 53.348 110.204 54.779 L 110.204 85.935 C 110.204 87.934 108.044 89.179 106.311 88.182 C 105.509 87.716 105.01 86.858 105.01 85.935 L 105.01 54.779 C 105.01 53.348 106.175 52.185 107.608 52.185 Z M 123.185 54.779 C 123.185 52.782 121.024 51.531 119.291 52.534 C 118.49 52.994 117.993 53.852 117.993 54.779 L 117.993 85.935 C 117.993 87.934 120.157 89.179 121.887 88.182 C 122.691 87.716 123.185 86.858 123.185 85.935 L 123.185 54.779 Z" style=""/>
    <path fill-rule="evenodd" d="M 141.359 39.204 C 141.359 42.072 139.036 44.396 136.166 44.396 L 133.57 44.396 L 133.57 91.128 C 133.57 96.859 128.923 101.512 123.185 101.512 L 92.032 101.512 C 86.299 101.512 81.647 96.859 81.647 91.128 L 81.647 44.396 L 79.05 44.396 C 76.182 44.396 73.858 42.072 73.858 39.204 L 73.858 34.009 C 73.858 31.14 76.182 28.819 79.05 28.819 L 97.224 28.819 C 97.224 25.948 99.551 23.627 102.416 23.627 L 112.801 23.627 C 115.671 23.627 117.993 25.948 117.993 28.819 L 136.166 28.819 C 139.036 28.819 141.359 31.14 141.359 34.009 L 141.359 39.204 Z M 87.453 44.396 L 86.839 44.701 L 86.839 91.128 C 86.839 93.993 89.165 96.318 92.032 96.318 L 123.185 96.318 C 126.057 96.318 128.377 93.993 128.377 91.128 L 128.377 44.701 L 127.764 44.396 L 87.453 44.396 Z M 79.05 39.204 L 79.05 34.009 L 136.166 34.009 L 136.166 39.204 L 79.05 39.204 Z" style=""/>
  </g>
</svg>